<?xml version="1.0" encoding="UTF-8" standalone="no"?>
<!-- Created with Inkscape (http://www.inkscape.org/) -->
<svg width="3.0095501mm" height="1.9374051mm" viewBox="0 0 3.0095501 1.9374052" version="1.1" id="svg5" inkscape:version="1.2.2 (732a01da63, 2022-12-09)" sodipodi:docname="skh.svg" xmlns:inkscape="http://www.inkscape.org/namespaces/inkscape" xmlns:sodipodi="http://sodipodi.sourceforge.net/DTD/sodipodi-0.dtd" xmlns="http://www.w3.org/2000/svg" xmlns:svg="http://www.w3.org/2000/svg">
  <sodipodi:namedview id="namedview7" pagecolor="#505050" bordercolor="#eeeeee" borderopacity="1" inkscape:showpageshadow="0" inkscape:pageopacity="0" inkscape:pagecheckerboard="0" inkscape:deskcolor="#505050" inkscape:document-units="mm" showgrid="false" inkscape:zoom="45.254834" inkscape:cx="4.4304659" inkscape:cy="8.0433396" inkscape:window-width="1920" inkscape:window-height="1057" inkscape:window-x="-8" inkscape:window-y="-8" inkscape:window-maximized="1" inkscape:current-layer="svg5"/>
  <defs id="defs2"/>
  <g aria-label="SKH" id="text848" style="font-size:3.175px;font-family:Rodondo;-inkscape-font-specification:Rodondo;stroke-width:0.264583" transform="translate(-49.262678,-35.035112)">
    <path d="m 49.703978,36.048462 c 0.0095,0.0032 0.01905,0.0032 0.0381,0.0063 0.01905,0.0032 0.03175,0.0064 0.03175,0.0064 0.130175,0.02857 0.238125,0.184257 0.238125,0.320782 0,0.15875 -0.130175,0.288925 -0.288925,0.288925 h -0.0095 -0.45085 l 0.0032,0.0063 c 0.06985,0.174625 0.238125,0.295275 0.434975,0.295275 h 0.0127 c 0.179426,0.0032 0.311876,-0.09936 0.4286,-0.171425 0.111125,-0.111125 0.17145,-0.26035 0.17145,-0.4191 0,-0.15875 -0.06032,-0.346182 -0.17145,-0.457307 -0.09208,-0.09207 -0.225425,-0.1524 -0.352425,-0.168275 -0.03175,-0.0032 -0.04763,-0.0064 -0.04763,-0.0064 -0.09208,-0.02222 -0.168275,-0.104775 -0.168275,-0.2032 0,-0.1143 0.1016,-0.206375 0.2159,-0.206375 h 0.02222 c 0.19685,0 0.377825,-0.130625 0.447675,-0.30525 v 0 h -0.4699 c -0.279399,0 -0.517525,0.2322 -0.517525,0.5116 0,0.250825 0.1905,0.460375 0.4318,0.50165 z" id="path958" style="display:inline;fill:#000000;fill-opacity:1" sodipodi:nodetypes="cccsscccsccscccsssccsscc"/>
    <path id="path960" d="m 50.060562,35.035112 v 1.460875 0.02894 c 0,0.2032 0.120964,0.374568 0.295589,0.444418 l 0.0062,0.0031 v -0.787549 l 0.610299,0.787548 h 0.321428 v -0.08423 l -0.779281,-0.995289 0.677478,-0.857813 h -0.384473 l -0.445451,0.562741 v -0.562741 z" sodipodi:nodetypes="ccscccccccccccc" style="display:inline;fill:#000000;fill-opacity:1"/>
    <path d="m 51.294328,35.035112 v 0.7022 h 0.6731 v -0.7022 h 0.3048 c -4.6e-5,0.490949 0,1.011332 0,1.492745 0,0.2032 -0.123825,0.37465 -0.29845,0.4445 h -0.0032 v -0.93345 h -0.676275 l -2.25e-4,0.93351 h -0.301625 l 2.25e-4,-1.937305 z" id="path962" style="display:inline;fill:#000000;fill-opacity:1" sodipodi:nodetypes="cccccccccccccc"/>
  </g>
</svg>